<svg width="44" height="20" viewBox="0 0 44 20" fill="none" xmlns="http://www.w3.org/2000/svg">
<path fill-rule="evenodd" clip-rule="evenodd" d="M42.8475 17.5687C42.7157 18.4708 41.8374 19.1667 40.7725 19.1667H4.05975C2.90259 19.1667 1.96753 18.3462 1.96753 17.3342V2.64348C1.96753 1.72853 2.73221 0.970801 3.73218 0.833344H41.0991C42.0118 0.958773 42.7299 1.60138 42.8475 2.40894V17.5687ZM6.65804 4.45276V15.5653H9.94698V4.45276H6.65804ZM16.962 4.45276L16.2003 9.64434L15.7287 6.82132C15.6108 6.03026 15.4796 5.24066 15.3352 4.45276H11.0707V15.5653H13.9509L13.961 8.22853L15.174 15.5653H17.2256L18.3767 8.06444L18.3869 15.5653H21.258V4.45276H16.962ZM26.6513 6.76376C26.6878 6.90551 26.7061 7.22767 26.7061 7.73025V12.0387C26.7061 12.7775 26.6513 13.2311 26.5428 13.3978C26.4332 13.5644 26.1422 13.6478 25.6696 13.6478V6.35396C26.0276 6.35396 26.272 6.38661 26.4018 6.45276C26.5316 6.51891 26.6148 6.62286 26.6513 6.76376V6.76376ZM28.137 15.4528C28.5285 15.3772 28.8571 15.2449 29.1238 15.055C29.3895 14.866 29.5761 14.6031 29.6836 14.2663C29.7901 13.9313 29.854 13.2646 29.854 12.2689V8.36599C29.854 7.3153 29.8074 6.60998 29.7343 6.25173C29.6598 5.89008 29.4705 5.55243 29.1867 5.27492C28.8936 4.98283 28.4666 4.77235 27.9058 4.64434C27.345 4.51633 26.4292 4.45276 24.8369 4.45276H22.3827V15.5653H26.3683C27.1563 15.5653 27.7456 15.5275 28.137 15.4528V15.4528ZM35.1611 13.8875C35.1003 14.0292 34.8356 14.1005 34.6338 14.1005C34.438 14.1005 34.3082 14.0318 34.2413 13.8952C34.1754 13.7577 34.1429 13.4459 34.1429 12.9588V10.0206C34.1429 9.51462 34.1713 9.19932 34.2301 9.07389C34.288 8.94846 34.4147 8.88489 34.6105 8.88489C34.8113 8.88489 35.08 8.95705 35.149 9.10053C35.2179 9.244 35.2524 9.55156 35.2524 10.0206V12.8686C35.2524 13.4064 35.222 13.7466 35.1611 13.8875V13.8875ZM30.9747 15.5653H33.936L34.1399 14.8574C34.4076 15.1418 34.7038 15.3557 35.0263 15.4974C35.3488 15.64 35.8315 15.7114 36.2047 15.7114C36.724 15.7114 37.1733 15.5911 37.5515 15.3514C37.9288 15.1126 38.1702 14.829 38.2716 14.5026C38.374 14.1761 38.4257 13.6804 38.4257 13.0138V9.89606C38.4257 9.2251 38.4085 8.78781 38.375 8.58163C38.3305 8.35509 38.2265 8.1399 38.0708 7.9519C37.8897 7.7287 37.6355 7.5552 37.3396 7.45276C37.0191 7.33334 36.6418 7.27407 36.2057 7.27407C35.8275 7.27407 35.3437 7.34022 35.0202 7.47166C34.6804 7.61405 34.3811 7.81717 34.1429 8.06702V4.45276H30.9747V15.5653V15.5653Z" fill="white"/>
</svg>
