<svg width="24" height="24" viewBox="0 0 24 24" fill="none" xmlns="http://www.w3.org/2000/svg">
<path fill-rule="evenodd" clip-rule="evenodd" d="M11.9996 22.9992C5.92482 22.9992 1 18.0752 1 12.0004C1 5.92482 5.92482 1 11.9996 1C18.0752 1 23 5.92482 23 11.9996C23 18.0752 18.0752 23 11.9996 23V22.9992ZM11.9996 13.7676C12.2318 13.7676 12.4617 13.7219 12.6762 13.633C12.8907 13.5442 13.0856 13.414 13.2498 13.2498C13.414 13.0856 13.5442 12.8907 13.633 12.6762C13.7219 12.4617 13.7676 12.2318 13.7676 11.9996C13.7676 11.7674 13.7219 11.5375 13.633 11.323C13.5442 11.1085 13.414 10.9136 13.2498 10.7494C13.0856 10.5853 12.8907 10.455 12.6762 10.3662C12.4617 10.2773 12.2318 10.2316 11.9996 10.2316C11.5307 10.2316 11.081 10.4179 10.7494 10.7494C10.4179 11.081 10.2316 11.5307 10.2316 11.9996C10.2316 12.4685 10.4179 12.9182 10.7494 13.2498C11.081 13.5813 11.5307 13.7676 11.9996 13.7676ZM16.2234 10.4286C16.5717 10.4286 16.9166 10.36 17.2383 10.2267C17.5601 10.0934 17.8524 9.89808 18.0987 9.65182C18.3449 9.40556 18.5403 9.1132 18.6736 8.79145C18.8068 8.46969 18.8754 8.12483 18.8754 7.77657C18.8754 7.4283 18.8068 7.08345 18.6736 6.76169C18.5403 6.43993 18.3449 6.14758 18.0987 5.90132C17.8524 5.65506 17.5601 5.45971 17.2383 5.32644C16.9166 5.19316 16.5717 5.12456 16.2234 5.12456C15.5201 5.12456 14.8455 5.40397 14.3482 5.90132C13.8508 6.39866 13.5714 7.07321 13.5714 7.77657C13.5714 8.47992 13.8508 9.15447 14.3482 9.65182C14.8455 10.1492 15.5201 10.4286 16.2234 10.4286ZM16.2234 18.8747C16.5717 18.8747 16.9166 18.8061 17.2383 18.6728C17.5601 18.5395 17.8524 18.3442 18.0987 18.0979C18.3449 17.8516 18.5403 17.5593 18.6736 17.2375C18.8068 16.9158 18.8754 16.5709 18.8754 16.2227C18.8754 15.8744 18.8068 15.5295 18.6736 15.2078C18.5403 14.886 18.3449 14.5937 18.0987 14.3474C17.8524 14.1011 17.5601 13.9058 17.2383 13.7725C16.9166 13.6392 16.5717 13.5707 16.2234 13.5707C15.5201 13.5707 14.8455 13.8501 14.3482 14.3474C13.8508 14.8448 13.5714 15.5193 13.5714 16.2227C13.5714 16.926 13.8508 17.6006 14.3482 18.0979C14.8455 18.5953 15.5201 18.8747 16.2234 18.8747ZM7.77657 10.4293C8.12483 10.4293 8.46969 10.3608 8.79145 10.2275C9.1132 10.0942 9.40556 9.89885 9.65182 9.65259C9.89808 9.40633 10.0934 9.11398 10.2267 8.79222C10.36 8.47047 10.4286 8.12561 10.4286 7.77734C10.4286 7.42908 10.36 7.08422 10.2267 6.76246C10.0934 6.44071 9.89808 6.14835 9.65182 5.90209C9.40556 5.65583 9.1132 5.46049 8.79145 5.32721C8.46969 5.19393 8.12483 5.12534 7.77657 5.12534C7.07321 5.12534 6.39866 5.40475 5.90132 5.90209C5.40397 6.39944 5.12456 7.07399 5.12456 7.77734C5.12456 8.4807 5.40397 9.15525 5.90132 9.65259C6.39866 10.1499 7.07321 10.4293 7.77657 10.4293ZM7.77657 18.8754C8.12483 18.8754 8.46969 18.8068 8.79145 18.6736C9.1132 18.5403 9.40556 18.3449 9.65182 18.0987C9.89808 17.8524 10.0934 17.5601 10.2267 17.2383C10.36 16.9166 10.4286 16.5717 10.4286 16.2234C10.4286 15.8752 10.36 15.5303 10.2267 15.2086C10.0934 14.8868 9.89808 14.5944 9.65182 14.3482C9.40556 14.1019 9.1132 13.9066 8.79145 13.7733C8.46969 13.64 8.12483 13.5714 7.77657 13.5714C7.07321 13.5714 6.39866 13.8508 5.90132 14.3482C5.40397 14.8455 5.12456 15.5201 5.12456 16.2234C5.12456 16.9268 5.40397 17.6013 5.90132 18.0987C6.39866 18.596 7.07321 18.8754 7.77657 18.8754Z" fill="white"/>
</svg>
