<svg id="Layer_1" enable-background="new 0 0 512 512" height="512" viewBox="0 0 512 512" width="512" xmlns="http://www.w3.org/2000/svg"><g><g><g><g id="XMLID_1308_"><g id="XMLID_1315_"><g id="XMLID_1316_"><g id="XMLID_1317_"><g id="XMLID_1318_"><g id="XMLID_1319_"><g id="XMLID_1320_"><g id="XMLID_1321_"><g id="XMLID_1322_"><g id="XMLID_1323_"><g id="XMLID_1324_"><g id="XMLID_1325_"><g id="XMLID_1326_"><g id="XMLID_1327_"><g id="XMLID_1328_"><circle cx="256" cy="256" fill="#ffe780" r="256"/></g></g></g></g></g></g></g></g></g></g></g></g></g></g></g></g></g><path d="m512 256c0-30.51-5.348-59.768-15.14-86.902l-99.527-99.527-196.333 99.257-30 203.775-85.992 37.129 88.78 88.78c25.803 8.745 53.454 13.488 82.212 13.488 141.385 0 256-114.615 256-256z" fill="#fed940"/><g><path d="m210.36 168.828h-45.471v144.547c-13.53-1.187-28.72 1.129-43.598 7.386-36.682 15.428-57.574 48.966-46.663 74.909s49.493 34.468 86.175 19.04c29.915-12.582 49.321-37.207 49.547-59.936h.009v-185.946z" fill="#fc445f"/><path d="m397.333 110.732h-45.471v152.85c-13.53-1.187-28.72 1.128-43.598 7.386-36.682 15.428-57.574 48.966-46.663 74.909s49.493 34.468 86.175 19.04c29.915-12.582 49.321-37.207 49.548-59.936h.009z" fill="#e00f5a"/><path d="m397.333 145.334-232.444 58.319v-75.763l232.444-58.319z" fill="#e00f5a"/><path d="m397.33 69.57v75.76l-138.62 34.78v-75.76z" fill="#b70042"/></g></g></svg>