<?xml version="1.0"?>
<svg xmlns="http://www.w3.org/2000/svg" xmlns:xlink="http://www.w3.org/1999/xlink" xmlns:svgjs="http://svgjs.com/svgjs" version="1.1" width="512" height="512" x="0" y="0" viewBox="0 0 413.811 413.811" style="enable-background:new 0 0 512 512" xml:space="preserve"><g>
<g xmlns="http://www.w3.org/2000/svg">
	<g>
		<path d="M314.88,144.463c-2.56-2.56-5.12-5.632-8.192-8.192l-20.48,23.04c26.112,23.04,28.672,63.488,5.632,89.6    c-1.536,2.048-3.584,4.096-5.632,5.632l20.48,23.04C345.6,243.279,349.696,183.887,314.88,144.463z" fill="#ffffff" data-original="#000000" style=""/>
	</g>
</g>
<g xmlns="http://www.w3.org/2000/svg">
	<g>
		<path d="M369.664,92.751c-3.584-3.584-7.168-7.168-10.752-10.24l-20.992,22.528c56.32,51.712,59.904,139.264,8.704,195.072    c-2.56,3.072-5.632,5.632-8.704,8.704l20.992,22.528C427.52,268.367,432.64,161.359,369.664,92.751z" fill="#ffffff" data-original="#000000" style=""/>
	</g>
</g>
<g xmlns="http://www.w3.org/2000/svg">
	<g>
		<path d="M240.64,26.191c-5.12-2.56-11.264-2.048-15.872,1.024l-137.216,92.16H15.36c-8.704,0-15.36,6.656-15.36,15.36v144.384    c0,8.704,6.656,15.36,15.36,15.36h72.192l137.216,92.16c7.168,4.608,16.384,3.072,21.504-4.096c1.536-2.56,2.56-5.632,2.56-8.704    V39.503C248.832,33.871,245.76,28.751,240.64,26.191z" fill="#ffffff" data-original="#000000" style=""/>
	</g>
</g>
<g xmlns="http://www.w3.org/2000/svg">
</g>
<g xmlns="http://www.w3.org/2000/svg">
</g>
<g xmlns="http://www.w3.org/2000/svg">
</g>
<g xmlns="http://www.w3.org/2000/svg">
</g>
<g xmlns="http://www.w3.org/2000/svg">
</g>
<g xmlns="http://www.w3.org/2000/svg">
</g>
<g xmlns="http://www.w3.org/2000/svg">
</g>
<g xmlns="http://www.w3.org/2000/svg">
</g>
<g xmlns="http://www.w3.org/2000/svg">
</g>
<g xmlns="http://www.w3.org/2000/svg">
</g>
<g xmlns="http://www.w3.org/2000/svg">
</g>
<g xmlns="http://www.w3.org/2000/svg">
</g>
<g xmlns="http://www.w3.org/2000/svg">
</g>
<g xmlns="http://www.w3.org/2000/svg">
</g>
<g xmlns="http://www.w3.org/2000/svg">
</g>
</g></svg>
