<?xml version="1.0"?>
<svg xmlns="http://www.w3.org/2000/svg" xmlns:xlink="http://www.w3.org/1999/xlink" xmlns:svgjs="http://svgjs.com/svgjs" version="1.1" width="512" height="512" x="0" y="0" viewBox="0 0 512 512" style="enable-background:new 0 0 512 512" xml:space="preserve" class=""><g><g xmlns="http://www.w3.org/2000/svg"><path d="m424.962 97.1c-5.857 5.858-5.856 15.356.003 21.213 36.78 36.77 57.035 85.666 57.035 137.682 0 52.015-20.255 100.912-57.035 137.682-9.38 9.377-2.771 25.613 10.605 25.613 4.225 0 8.042-1.748 10.768-4.56 42.345-42.419 65.662-98.782 65.662-158.735 0-60.031-23.377-116.461-65.825-158.898-5.858-5.857-15.356-5.855-21.213.003z" fill="#ffffff" data-original="#000000" style="" class=""/><path d="m382.542 351.265c-5.857 5.859-5.855 15.356.004 21.213 5.857 5.856 15.356 5.856 21.213-.004 31.109-31.12 48.241-72.484 48.241-116.474s-17.132-85.354-48.242-116.475c-5.857-5.859-15.354-5.861-21.213-.004s-5.861 15.354-.004 21.213c25.446 25.455 39.459 59.287 39.459 95.266s-14.013 69.811-39.458 95.265z" fill="#ffffff" data-original="#000000" style="" class=""/><path d="m340.11 330.043c5.856 5.859 15.353 5.863 21.213.006 19.782-19.769 30.677-46.068 30.677-74.049s-10.895-54.28-30.676-74.05c-5.86-5.856-15.357-5.853-21.213.006-5.856 5.86-5.853 15.357.006 21.213 14.112 14.104 21.883 32.866 21.883 52.831s-7.771 38.727-21.883 52.83c-5.86 5.856-5.863 15.353-.007 21.213z" fill="#ffffff" data-original="#000000" style="" class=""/><path d="m15 146.429h60v219.14h-60c-8.28 0-15-6.71-15-15v-189.14c0-8.29 6.72-15 15-15z" fill="#ffffff" data-original="#000000" style="" class=""/><path d="m303.81 78.589v354.82c0 21.57-23.12 35.24-42.01 24.83l-156.8-86.32v-231.84l156.8-86.32c18.9-10.41 42.01 3.27 42.01 24.83z" fill="#ffffff" data-original="#000000" style="" class=""/></g></g></svg>
